{"title":"Gallows.Road.2015.WEBRip.XViD.AC3-Sorrow","uid":12146663,"size":1503406230,"categoryP":"video","categoryS":"movies","magnet":"?xt=urn:btih:37743f5b09b991021a278a2ff1b7b5dd970138bb&amp;dn=Gallows.Road.2015.WEBRip.XViD.AC3-Sorrow&amp;tr=udp%3A%2F%2Ftracker.openbittorrent.com%3A80&amp;tr=udp%3A%2F%2Fopen.demonii.com%3A1337&amp;tr=udp%3A%2F%2Ftracker.coppersurfer.tk%3A6969&amp;tr=udp%3A%2F%2Fexodus.desync.com%3A6969","seeders":1,"leechers":0,"uploader":null,"files":3,"time":1437489602,"description":"Gallows Road 2015 WEBRip XViD AC3-Sorrow\n\nGeneral\nComplete name                            : Gallows.Road.2015.WEBRip.XViD.AC3-Sorrow.avi\nFormat                                   : AVI\nFormat/Info                              : Audio Video Interleave\nFile size                                : 1.37 GiB\nDuration                                 : 1h 44mn\nOverall bit rate                         : 1 873 Kbps\nWriting application                      : Lavf55.19.104\nWriting library                          : \n\nVideo\nID                                       : 0\nFormat                                   : MPEG-4 Visual\nFormat profile                           : Simple@L3\nFormat settings, BVOP                    : No\nFormat settings, QPel                    : No\nFormat settings, GMC                     : No warppoints\nFormat settings, Matrix                  : Default (H.263)\nCodec ID                                 : XVID\nCodec ID/Hint                            : XviD\nDuration                                 : 1h 44mn\nBit rate                                 : 1 415 Kbps\nWidth                                    : 720 pixels\nHeight                                   : 400 pixels\nDisplay aspect ratio                     : 16:9\nFrame rate                               : 23.976 fps\nColor space                              : YUV\nChroma subsampling                       : 4:2:0\nBit depth                                : 8 bits\nScan type                                : Progressive\nCompression mode                         : Lossy\nBits/(Pixel*Frame)                       : 0.205\nStream size                              : 1.03 GiB (76%)\nWriting library                          : XviD 64\n\nAudio\nID                                       : 1\nFormat                                   : AC-3\nFormat/Info                              : Audio Coding 3\nMode extension                           : CM (complete main)\nFormat settings, Endianness              : Big\nCodec ID                                 : 2000\nDuration                                 : 1h 44mn\nBit rate mode                            : Constant\nBit rate                                 : 448 Kbps\nChannel count                            : 2 channels\nChannel positions                        : Front: L R\nSampling rate                            : 48.0 KHz\nBit depth                                : 16 bits\nCompression mode                         : Lossy\nStream size                              : 336 MiB (24%)\nAlignment                                : Aligned on interleaves\nInterleave, duration                     : 32 ms (0.77 video frame)\nInterleave, preload duration             : 512 ms\n\n\nSource:Gallows.Road.2015.720p.WEB-DL.DD5.1.H264-PLAYNOW\n\nSample:Included\n\nDrama:Drama\n\nLoss and heartbreak challenges one man to forgive the unforgivable.\n\n\nDirector: Bill McAdams Jr. \n\nWriters: Bill McAdams Jr., Grace McAdams \n\nStars: Ernie Hudson, Kevin Sorbo, Bill McAdams Jr.\n &lt;a href=&quot;\nhttp://www.imdb.com/title/tt3100052/&quot; rel=&quot;nofollow&quot; target=&quot;_NEW&quot;&gt;\nhttp://www.imdb.com/title/tt3100052/&lt;/a&gt;","torrent":{"xt":"urn:btih:37743f5b09b991021a278a2ff1b7b5dd970138bb","amp;dn":"Gallows.Road.2015.WEBRip.XViD.AC3-Sorrow","amp;tr":["udp%3A%2F%2Ftracker.openbittorrent.com%3A80","udp%3A%2F%2Fopen.demonii.com%3A1337","udp%3A%2F%2Ftracker.coppersurfer.tk%3A6969","udp%3A%2F%2Fexodus.desync.com%3A6969"],"infoHash":"37743f5b09b991021a278a2ff1b7b5dd970138bb","infoHashBuffer":{"type":"Buffer","data":[55,116,63,91,9,185,145,2,26,39,138,47,241,183,181,221,151,1,56,187]},"announce":[],"urlList":[]}}